<?xml version="1.0" encoding="iso-8859-1"?>
<!-- Generator: Adobe Illustrator 19.0.0, SVG Export Plug-In . SVG Version: 6.00 Build 0)  -->
<svg version="1.1" id="Layer_1" xmlns="http://www.w3.org/2000/svg" xmlns:xlink="http://www.w3.org/1999/xlink" x="0px" y="0px"
	 viewBox="0 0 502 502" style="enable-background:new 0 0 502 502;" xml:space="preserve">
<g>
	<rect x="159.092" y="339.843" style="fill:#4FC497;" width="183.814" height="85.78"/>
	<rect x="187.686" y="425.623" style="fill:#4FC497;" width="126.627" height="39.826"/>
	<path style="fill:#D7E6D8;" d="M322.993,81.994C322.993,42.296,290.698,10,251,10s-71.994,32.296-71.994,71.994v257.85h40.847
		V81.994c0-17.174,13.972-31.146,31.146-31.146c17.174,0,31.146,13.972,31.146,31.146v257.85h40.847V81.994H322.993z"/>
	<g>
		<path style="fill:#333333;" d="M342.907,329.843h-9.914V81.994C332.993,36.782,296.211,0,251,0s-81.993,36.782-81.993,81.994
			v247.85h-9.914c-5.522,0-10,4.477-10,10v85.78c0,5.523,4.478,10,10,10h18.594v29.826c0,5.523,4.478,10,10,10h20.636V492
			c0,5.523,4.478,10,10,10s10-4.477,10-10v-16.551h45.355V492c0,5.523,4.478,10,10,10s10-4.477,10-10v-16.551h20.636
			c5.522,0,10-4.477,10-10v-29.826h18.594c5.522,0,10-4.477,10-10v-85.78C352.907,334.32,348.43,329.843,342.907,329.843z
			 M189.007,81.994C189.007,47.81,216.815,20,251,20s61.993,27.81,61.993,61.994v247.85h-20.847V81.994
			c0-22.688-18.458-41.146-41.146-41.146s-41.146,18.458-41.146,41.146v247.85h-20.847V81.994z M229.854,329.843V81.994
			c0-11.66,9.486-21.146,21.146-21.146s21.146,9.486,21.146,21.146v247.85h-42.292V329.843z M304.313,455.449H197.686v-19.826
			h106.627v19.826H304.313z M169.092,415.623v-65.78h163.814v65.78H169.092z"/>
		<path style="fill:#333333;" d="M255.085,363.542h-63.313c-5.522,0-10,4.477-10,10s4.478,10,10,10h63.313c5.522,0,10-4.477,10-10
			S260.607,363.542,255.085,363.542z"/>
		<path style="fill:#333333;" d="M293.89,363.542h-9.19c-5.522,0-10,4.477-10,10s4.478,10,10,10h9.19c5.522,0,10-4.477,10-10
			S299.411,363.542,293.89,363.542z"/>
	</g>
</g>
<g>
</g>
<g>
</g>
<g>
</g>
<g>
</g>
<g>
</g>
<g>
</g>
<g>
</g>
<g>
</g>
<g>
</g>
<g>
</g>
<g>
</g>
<g>
</g>
<g>
</g>
<g>
</g>
<g>
</g>
</svg>
